<svg width="362" height="206" viewBox="0 0 362 206" fill="none" xmlns="http://www.w3.org/2000/svg">
<path d="M202.858 34.7806C206.753 34.7806 209.909 31.6278 209.909 27.7386C209.909 23.8494 206.753 20.6966 202.858 20.6966C198.964 20.6966 195.808 23.8494 195.808 27.7386C195.808 31.6278 198.964 34.7806 202.858 34.7806Z" fill="#F5D190"/>
<path d="M153.731 100.412C157.625 100.412 160.782 97.2591 160.782 93.3699C160.782 89.4807 157.625 86.3279 153.731 86.3279C149.837 86.3279 146.68 89.4807 146.68 93.3699C146.68 97.2591 149.837 100.412 153.731 100.412Z" fill="#F5D190"/>
<path d="M136.014 100.412C139.908 100.412 143.065 97.2591 143.065 93.3699C143.065 89.4807 139.908 86.3279 136.014 86.3279C132.12 86.3279 128.963 89.4807 128.963 93.3699C128.963 97.2591 132.12 100.412 136.014 100.412Z" fill="#F5D190"/>
<path d="M279.43 92.5962C276.684 92.3905 251.243 93.336 243.519 88.2294C243.205 88.0201 242.84 87.9479 242.489 88.0382C242.022 88.1572 241.632 88.5326 241.468 89.0486C241.125 90.1241 240.707 89.8751 241.293 92.3652C241.502 93.253 242.206 93.8666 243.002 93.8305C247.438 93.6248 273.542 93.0582 279.313 93.9929C279.734 94.0614 280.077 93.6248 279.985 93.1484C279.928 92.8416 279.703 92.6179 279.43 92.5962Z" fill="#57310D"/>
<path d="M192.616 11.3982C194.953 10.9681 196.482 8.62502 195.811 6.34937C195.48 5.22598 194.959 4.15716 194.31 3.24241C189.949 -2.90732 182.406 1.04699 181.349 4.02236C180.883 5.33511 180.822 6.76662 181.14 8.12111C181.539 9.8126 182.57 12.0273 185.27 12.3482C185.492 12.3739 185.697 12.3868 185.893 12.3835C186.183 12.3964 186.469 12.4092 186.758 12.4253C188.422 12.5504 190.572 12.4124 192.616 11.3982ZM185.79 9.38251C185.138 9.23807 184.611 8.73415 184.489 8.07617C184.489 8.07296 184.489 8.06654 184.486 8.06333L184.357 7.33153C184.216 6.53553 184.466 5.72669 185.019 5.17463L185.035 5.15858C186.247 3.92286 187.982 3.3387 189.663 3.71744C190.82 3.98063 191.97 4.68355 192.575 6.30764C192.578 6.31406 192.578 6.31727 192.581 6.32369C192.925 7.2545 192.539 8.30085 191.71 8.77267C189.563 9.99555 187.012 9.65533 185.79 9.38251Z" fill="#57310D"/>
<path d="M129.937 40.4425C133.645 38.4139 137.013 35.4161 138.138 31.0285C138.781 28.5282 138.128 24.6926 136.637 22.5903C132.276 16.4406 124.734 20.3949 123.677 23.3702C123.211 24.683 123.149 26.1145 123.468 27.469C123.866 29.1605 124.898 31.3751 127.597 31.6961C127.764 31.7154 127.922 31.7282 128.073 31.7314C128.394 31.7443 128.709 31.7571 129.031 31.7699C130.702 31.9015 132.877 31.7731 134.944 30.746C134.182 33.0121 132.431 35.0374 130.123 36.2506C129.458 36.6005 128.815 36.9247 128.201 37.22C126.209 38.1861 124.229 35.8847 125.473 34.0584C125.65 33.7952 125.708 33.4839 125.656 33.1918C125.611 32.935 125.479 32.6975 125.274 32.5114L123.709 31.144C122.372 29.9789 120.276 30.6273 119.833 32.338C119.817 32.4022 119.801 32.46 119.785 32.521C118.252 38.4621 124.551 43.3857 129.937 40.4425ZM128.111 28.7272C127.459 28.5827 126.932 28.0788 126.81 27.4208C126.81 27.4176 126.81 27.4112 126.807 27.408L126.678 26.6762C126.537 25.8802 126.787 25.0714 127.34 24.5193L127.356 24.5032C128.568 23.2675 130.303 22.6834 131.984 23.0621C133.141 23.3253 134.291 24.0282 134.896 25.6523C134.899 25.6587 134.899 25.6619 134.902 25.6684C135.246 26.5992 134.86 27.6455 134.031 28.1173C131.884 29.3402 129.333 29 128.111 28.7272Z" fill="#57310D"/>
<path d="M267.543 31.2307C262.932 29.5713 257.78 30.2582 253.766 33.0763C249.752 35.8912 247.355 40.4971 247.355 45.395C247.355 49.2562 246.278 53.0404 244.247 56.3239L237.479 67.2593C236.367 69.0535 234.442 70.1255 232.331 70.1255C228.992 70.1255 226.28 67.4133 226.28 64.0817V44.3422C226.28 40.7153 223.268 37.7945 219.614 37.9261C216.134 38.0513 213.425 41.017 213.425 44.4963V59.4662C213.425 65.3174 208.63 70.225 202.775 70.1223C197.09 70.0228 192.497 65.3752 192.497 59.6748V44.5091C192.497 41.6204 190.653 38.9885 187.876 38.1797C184.727 37.2617 181.442 38.8473 180.166 41.8034C172.749 59.0072 155.836 70.1255 137.081 70.1255H117.676V52.0647C117.676 46.9838 115.655 42.1083 112.056 38.5135L109.681 36.1415C106.056 32.521 101.171 30.3641 96.045 30.332C85.4045 30.2614 76.7275 38.889 76.7275 49.497V63.7993C76.7275 74.3847 85.3177 82.9642 95.9164 82.9642H103.102C99.8243 90.661 92.2079 96.0853 83.3381 96.1591C79.7934 96.188 76.7275 99.0382 76.7275 102.582C76.7275 106.125 79.6038 109.001 83.1549 109.001C99.2747 109.001 112.846 97.9116 116.629 82.9674H137.081C152.301 82.9674 166.573 77.2189 177.367 67.3812C178.637 66.2226 180.661 66.7136 181.301 68.3056C184.739 76.8883 193.153 82.9674 202.961 82.9674C208.08 82.9674 212.821 81.3112 216.674 78.5028C217.75 77.7164 219.229 77.7485 220.254 78.599C223.721 81.4813 228.23 83.1536 233.128 82.9514C239.469 82.6914 245.224 79.1639 248.563 73.7717C248.904 73.2196 249.711 73.2196 250.045 73.7749C253.348 79.2795 259.384 82.9642 266.261 82.9642C276.683 82.9642 285.164 74.4971 285.164 64.0849V56.2822C285.161 45.0933 278.081 35.0278 267.543 31.2307ZM95.9164 70.1255C92.4167 70.1255 89.5823 67.2946 89.5823 63.7993V49.6639C89.5823 46.175 92.4392 43.1643 95.9293 43.1707C97.6133 43.1739 99.2008 43.8319 100.393 45.0227L102.967 47.5936C104.153 48.778 104.822 50.3893 104.822 52.0647V61.2315C104.822 66.1455 100.833 70.1255 95.9164 70.1255ZM272.306 64.0849C272.306 67.4904 269.475 70.2443 266.039 70.1223C262.758 70.0068 260.21 67.2047 260.21 63.9244V45.395C260.21 44.3936 260.801 43.8287 261.154 43.5815C261.405 43.405 261.845 43.1707 262.417 43.1707C262.652 43.1707 262.909 43.2092 263.182 43.3087C268.639 45.2763 272.306 50.4888 272.306 56.2822V64.0849Z" fill="#F5D190"/>
<path d="M338.334 127C335.722 127.05 333.679 129.281 333.679 131.881V171.819C333.679 185.489 322.473 196.606 308.721 196.545C303.436 196.522 299.181 192.198 299.181 186.937V170.811C299.181 168.212 297.138 165.98 294.527 165.93C291.865 165.88 289.689 168.016 289.689 170.654V188.42C289.689 192.715 286.339 196.377 282.03 196.538C277.498 196.709 273.758 193.088 273.758 188.614V179.109C273.758 175.888 271.665 173.122 268.555 172.233C265.44 171.341 262.198 172.576 260.477 175.31L248.649 194.1C247.685 195.631 246.026 196.545 244.207 196.545C241.493 196.545 239.194 194.432 238.986 191.737L237.654 174.778C237.498 172.772 236.082 171.084 234.13 170.575C232.179 170.065 230.113 170.839 228.984 172.506L217.915 188.875C214.668 193.675 209.257 196.545 203.439 196.545C193.822 196.545 185.995 188.755 185.995 179.177V139.789C185.995 137.19 183.952 134.958 181.341 134.908C178.678 134.858 176.503 136.994 176.503 139.633V179.141C176.503 183.503 174.883 187.495 172.209 190.552C168.658 194.614 161.961 192.037 161.975 186.653C161.975 186.555 161.975 186.455 161.972 186.355C161.842 175.69 152.912 167.199 142.195 167.199H126.122C118.181 167.199 110.771 170.964 106.02 177.03V139.633C106.02 136.996 103.854 134.863 101.192 134.908C98.5754 134.952 96.528 137.185 96.528 139.789V193.545C96.528 195.203 95.1775 196.547 93.5117 196.547H90.1413C83.9624 196.547 78.9536 191.562 78.9536 185.411V139.789C78.9536 137.19 76.9107 134.958 74.2989 134.908C71.6368 134.858 69.4614 136.994 69.4614 139.633V185.411C69.4614 196.779 78.7205 205.995 90.1413 205.995H159.02C167.057 205.995 174.282 202.481 179.229 196.913C180.301 195.708 182.202 195.726 183.271 196.932C188.225 202.506 195.469 206.018 203.526 205.995C212.568 205.97 220.964 201.299 226.011 193.831L227.321 191.896C227.958 190.952 229.434 191.339 229.523 192.471C230.12 200.052 236.571 205.995 244.212 205.995C249.319 205.995 253.985 203.425 256.697 199.117L263.619 188.125C263.806 187.827 264.268 187.959 264.268 188.311C264.268 197.491 271.299 205.324 280.501 205.955C286.243 206.348 291.46 203.955 294.913 199.998C298.407 203.691 303.358 205.995 308.84 205.995C327.772 205.995 343.178 190.665 343.178 171.819V131.724C343.173 129.081 340.996 126.95 338.334 127ZM142.275 196.545H110.695C109.151 196.545 108.088 195.003 108.641 193.57L111.242 186.828C113.593 180.739 119.568 176.65 126.122 176.65H142.488C148.102 176.65 152.647 181.281 152.478 186.903C152.313 192.312 147.711 196.545 142.275 196.545Z" fill="#F5D190"/>
<path d="M31.2255 206C25.6933 206 20.2412 204.531 15.3648 201.663C8.29713 197.507 3.22657 190.875 1.08546 182.987C-0.0479283 178.811 -0.294715 174.526 0.349673 170.25C0.738134 167.668 3.15345 165.887 5.747 166.278C8.34055 166.665 10.1252 169.071 9.73672 171.651C9.28885 174.628 9.46023 177.612 10.2509 180.521C13.3608 191.971 24.8639 198.735 36.4377 195.922L37.5391 195.653C43.4483 194.216 48.3475 190.52 51.3363 185.248C54.3252 179.973 54.9673 173.889 53.1484 168.111L48.4937 153.341C47.7099 150.85 49.0993 148.201 51.6014 147.418C54.1013 146.638 56.7656 148.021 57.5517 150.511L62.2064 165.282C64.8205 173.577 63.8973 182.318 59.606 189.89C55.3146 197.464 48.2766 202.77 39.7922 204.833L38.6908 205.102C36.2183 205.702 33.7139 205.998 31.2255 206Z" fill="#F5D190"/>
<path d="M357.254 205.995C354.633 205.995 352.508 203.88 352.508 201.271V131.724C352.508 129.115 354.633 127 357.254 127C359.875 127 362 129.115 362 131.724V201.269C362 203.88 359.875 205.995 357.254 205.995Z" fill="#F5D190"/>
<path d="M31.9724 174.635C34.7413 174.635 36.9858 172.401 36.9858 169.644C36.9858 166.888 34.7413 164.654 31.9724 164.654C29.2036 164.654 26.959 166.888 26.959 169.644C26.959 172.401 29.2036 174.635 31.9724 174.635Z" fill="#F5D190"/>
<path d="M285.994 158.245C282.868 158.04 253.901 156.705 245.105 151.624C244.747 151.417 244.333 151.344 243.931 151.433C243.398 151.549 242.957 151.924 242.768 152.438C242.377 153.509 241.899 155.536 242.571 158.015C242.811 158.897 243.613 159.509 244.516 159.473C249.566 159.271 279.288 158.704 285.859 159.637C286.337 159.705 286.73 159.271 286.625 158.795C286.559 158.49 286.303 158.265 285.994 158.245Z" fill="#57310D"/>
<path d="M267.307 155.281C267.38 155.297 267.456 155.313 267.529 155.329C274.777 156.905 280.289 148.974 276.415 142.576C273.772 138.211 269.99 134.315 264.675 133.182C261.633 132.534 257.059 133.535 254.623 135.461C247.569 141.034 252.712 149.927 256.332 151.06C257.932 151.56 259.654 151.567 261.263 151.116C263.269 150.555 265.868 149.195 266.103 145.917C266.343 142.569 263.896 142.048 261.999 142.137C261.334 142.169 261.071 143.012 261.608 143.413C262.458 144.045 263.217 144.98 262.774 146.16C262.504 146.881 261.846 147.379 261.099 147.546L260.265 147.73C259.312 147.939 258.315 147.659 257.602 146.981C255.989 145.448 255.157 143.203 255.562 141.015C255.825 139.592 256.604 138.175 258.45 137.374C263.155 135.336 268.69 137.929 271.423 142.642C271.882 143.433 272.305 144.195 272.698 144.93C273.961 147.288 271.308 149.793 269.051 148.378C268.443 147.998 267.652 148.132 267.207 148.694L265.655 150.655C264.337 152.324 265.225 154.828 267.307 155.281Z" fill="#57310D"/>
<path d="M145.648 145.549C146.132 145.032 146.93 144.962 147.499 145.382L148.26 145.944C148.577 146.179 149.014 146.158 149.308 145.899C149.674 145.576 149.681 145.012 149.327 144.677C147.686 143.135 145.049 143.474 143.84 145.369C142.353 147.705 140.714 151.062 140.374 154.885C140.296 155.763 139.553 156.434 138.667 156.434C137.757 156.434 137.008 155.729 136.953 154.826C136.743 151.419 135.875 143.788 132.346 143.788H130.404C128.786 143.788 127.475 142.482 127.475 140.872C127.475 139.262 128.786 137.956 130.404 137.956H131.371C132.129 137.956 132.881 138.129 133.548 138.488C135.031 139.289 137.517 141.131 138.815 144.889C139.101 145.717 140.244 145.794 140.637 145.012C141.61 143.083 143.059 140.508 144.507 139.064C145.353 138.22 146.69 138.238 147.494 139.121L151.331 143.324C152.302 144.389 152.491 145.944 151.808 147.209C150.817 149.04 148.42 149.558 146.754 148.303L145.824 147.602C145.166 147.109 145.083 146.151 145.648 145.549Z" fill="#57310D"/>
<path d="M30.8781 150.188C32.5394 149.884 33.6271 148.223 33.1495 146.611C32.9141 145.815 32.544 145.057 32.0824 144.409C28.9815 140.051 23.6185 142.853 22.8667 144.962C22.5354 145.892 22.492 146.906 22.7182 147.866C23.0015 149.065 23.735 150.634 25.6545 150.862C25.8122 150.88 25.9584 150.889 26.0978 150.887C26.3034 150.896 26.5068 150.905 26.7125 150.916C27.8938 151.007 29.4226 150.909 30.8781 150.188ZM26.0224 148.76C25.5585 148.658 25.1838 148.301 25.0969 147.834C25.0969 147.832 25.0969 147.828 25.0946 147.825L25.0032 147.307C24.9027 146.743 25.0809 146.169 25.474 145.778L25.4854 145.767C26.3469 144.891 27.5808 144.477 28.7759 144.746C29.5985 144.932 30.4166 145.43 30.8462 146.581C30.8484 146.586 30.8484 146.588 30.8507 146.593C31.0952 147.252 30.821 147.994 30.2315 148.328C28.705 149.195 26.8907 148.953 26.0224 148.76Z" fill="#57310D"/>
</svg>
